<svg xmlns="http://www.w3.org/2000/svg" xmlns:xlink="http://www.w3.org/1999/xlink" width="500" zoomAndPan="magnify" viewBox="0 0 375 374.999991" height="500" preserveAspectRatio="xMidYMid meet" version="1.2"><g id="9a3d812661"><path style=" stroke:none;fill-rule:evenodd;fill:#111111;fill-opacity:1;" d="M 219.6875 11.0625 C 216.054688 6.742188 210 5.703125 205.15625 8.46875 L 200.65625 10.890625 L 151.703125 38.714844 L 163.121094 58.765625 L 194.949219 40.617188 L 187.164062 83.136719 L 209.824219 87.285156 L 217.78125 44.59375 L 241.308594 72.59375 L 258.953125 57.730469 L 223.316406 15.210938 L 223.144531 15.210938 Z M 151.011719 369.707031 C 162.773438 369.707031 172.289062 360.375 172.289062 348.964844 C 172.289062 337.558594 162.773438 328.226562 151.011719 328.226562 C 139.25 328.226562 129.734375 337.558594 129.734375 348.964844 C 129.5625 360.375 139.25 369.707031 151.011719 369.707031 Z M 179.554688 255.804688 L 171.941406 298.496094 L 149.109375 294.347656 L 156.722656 251.828125 L 124.890625 270.148438 L 113.304688 250.101562 L 161.910156 222.273438 L 166.40625 219.679688 C 171.25 216.914062 177.304688 217.953125 180.9375 222.273438 L 184.398438 226.421875 L 220.550781 268.765625 L 202.90625 283.804688 Z M 198.0625 153.828125 L 190.453125 196.519531 L 167.617188 192.371094 L 175.230469 150.027344 L 143.574219 168.175781 L 132.15625 148.125 L 180.59375 120.46875 L 180.59375 120.125 L 180.9375 120.125 L 185.4375 117.53125 C 190.277344 114.765625 196.332031 115.804688 199.964844 120.125 L 203.425781 124.101562 L 239.40625 166.617188 L 221.761719 181.65625 Z M 48.78125 322.519531 L 48.609375 322.519531 L 43.9375 321.136719 C 38.921875 319.753906 35.632812 314.917969 35.980469 309.730469 L 40.132812 252.003906 L 62.101562 253.558594 L 59.507812 288.644531 L 93.582031 265.484375 L 105.863281 283.632812 L 72.480469 306.273438 L 106.554688 316.125 L 100.503906 337.210938 Z M 274.867188 346.375 L 273.308594 351.386719 C 271.753906 356.226562 267.253906 359.507812 262.066406 359.164062 L 257.222656 358.816406 L 256.875 358.992188 L 256.703125 358.816406 L 203.078125 355.1875 L 204.464844 333.238281 L 240.097656 335.65625 L 216.746094 302.988281 L 234.5625 290.199219 L 258.433594 323.730469 L 268.8125 289.855469 L 289.742188 296.25 Z M 337.832031 227.457031 L 340.425781 232.125 C 343.019531 236.792969 341.984375 242.667969 337.832031 246.125 L 334.027344 249.410156 L 334.027344 249.582031 L 333.851562 249.582031 L 292.164062 284.84375 L 277.632812 267.730469 L 304.964844 244.570312 L 263.96875 237.3125 L 267.945312 215.1875 L 309.289062 222.445312 L 291.992188 191.335938 L 311.539062 180.445312 Z M 295.449219 131.011719 L 258.433594 150.890625 L 247.707031 131.1875 L 284.207031 111.65625 L 250.820312 98 L 259.296875 77.261719 L 310.15625 97.828125 L 310.328125 97.65625 L 310.5 98 L 315.171875 99.902344 C 320.1875 101.976562 322.953125 107.160156 322.089844 112.347656 L 321.226562 117.53125 L 311.710938 170.25 L 289.570312 166.273438 Z M 47.050781 177.335938 L 88.21875 184.25 L 84.414062 206.371094 L 42.898438 199.285156 L 60.542969 230.398438 L 40.996094 241.457031 L 14.359375 194.617188 L 11.761719 190.125 C 9.167969 185.457031 10.207031 179.582031 14.183594 176.125 L 17.992188 172.839844 L 17.992188 172.667969 L 18.164062 172.667969 L 59.332031 137.234375 L 74.035156 154.347656 Z M 109.152344 81.582031 L 136.480469 112 L 119.703125 127.039062 L 91.679688 95.925781 L 85.28125 131.359375 L 63.136719 127.382812 L 72.824219 74.839844 L 73.863281 69.480469 C 74.726562 64.296875 79.226562 60.496094 84.414062 60.320312 L 89.257812 60.148438 L 89.429688 59.976562 L 89.605469 60.148438 L 144.613281 57.902344 L 145.476562 80.371094 Z M 109.152344 81.582031 "/></g></svg>