<svg xmlns="http://www.w3.org/2000/svg" xmlns:xlink="http://www.w3.org/1999/xlink" width="500" zoomAndPan="magnify" viewBox="0 0 375 374.999991" height="500" preserveAspectRatio="xMidYMid meet" version="1.2"><g id="268be1199c"><path style=" stroke:none;fill-rule:evenodd;fill:#ffffff;fill-opacity:1;" d="M 219.691406 11.070312 C 216.058594 6.746094 210.003906 5.707031 205.160156 8.476562 L 200.664062 10.898438 L 151.707031 38.75 L 163.125 58.816406 L 194.953125 40.652344 L 187.171875 83.207031 L 209.832031 87.355469 L 217.789062 44.628906 L 241.3125 72.652344 L 258.957031 57.777344 L 223.324219 15.222656 L 223.152344 15.222656 Z M 151.015625 370.015625 C 162.777344 370.015625 172.292969 360.671875 172.292969 349.257812 C 172.292969 337.839844 162.777344 328.496094 151.015625 328.496094 C 139.253906 328.496094 129.738281 337.839844 129.738281 349.257812 C 129.566406 360.671875 139.253906 370.015625 151.015625 370.015625 Z M 179.558594 256.015625 L 171.949219 298.746094 L 149.113281 294.59375 L 156.726562 252.039062 L 124.894531 270.375 L 113.304688 250.308594 L 161.914062 222.457031 L 166.410156 219.863281 C 171.253906 217.097656 177.308594 218.132812 180.941406 222.457031 L 184.402344 226.609375 L 220.554688 268.992188 L 202.910156 284.039062 Z M 198.066406 153.957031 L 190.457031 196.683594 L 167.621094 192.53125 L 175.234375 150.152344 L 143.578125 168.3125 L 132.160156 148.246094 L 180.597656 120.570312 L 180.597656 120.222656 L 180.941406 120.222656 L 185.441406 117.628906 C 190.285156 114.863281 196.339844 115.898438 199.972656 120.222656 L 203.429688 124.203125 L 239.410156 166.757812 L 221.765625 181.808594 Z M 48.78125 322.789062 L 48.609375 322.789062 L 43.9375 321.40625 C 38.921875 320.023438 35.636719 315.179688 35.980469 309.988281 L 40.132812 252.210938 L 62.101562 253.769531 L 59.507812 288.882812 L 93.585938 265.703125 L 105.867188 283.867188 L 72.480469 306.527344 L 106.558594 316.390625 L 100.503906 337.492188 Z M 274.875 346.660156 L 273.316406 351.679688 C 271.757812 356.523438 267.261719 359.808594 262.074219 359.460938 L 257.230469 359.117188 L 256.882812 359.289062 L 256.710938 359.117188 L 203.085938 355.484375 L 204.46875 333.515625 L 240.101562 335.9375 L 216.75 303.242188 L 234.566406 290.441406 L 258.441406 324 L 268.820312 290.09375 L 289.75 296.496094 Z M 337.839844 227.648438 L 340.433594 232.320312 C 343.03125 236.988281 341.992188 242.871094 337.839844 246.332031 L 334.035156 249.617188 L 334.035156 249.789062 L 333.859375 249.789062 L 292.171875 285.078125 L 277.640625 267.953125 L 304.972656 244.773438 L 263.976562 237.507812 L 267.953125 215.367188 L 309.296875 222.632812 L 292 191.492188 L 311.546875 180.597656 Z M 295.457031 131.121094 L 258.441406 151.015625 L 247.714844 131.296875 L 284.214844 111.75 L 250.828125 98.082031 L 259.304688 77.324219 L 310.164062 97.910156 L 310.335938 97.738281 L 310.507812 98.082031 L 315.179688 99.984375 C 320.195312 102.0625 322.964844 107.25 322.097656 112.441406 L 321.234375 117.628906 L 311.71875 170.390625 L 289.578125 166.410156 Z M 47.050781 177.480469 L 88.222656 184.402344 L 84.417969 206.542969 L 42.902344 199.453125 L 60.546875 230.589844 L 40.996094 241.660156 L 14.359375 194.78125 L 11.761719 190.285156 C 9.167969 185.613281 10.207031 179.730469 14.183594 176.269531 L 17.992188 172.984375 L 17.992188 172.8125 L 18.164062 172.8125 L 59.335938 137.351562 L 74.039062 154.476562 Z M 109.152344 81.648438 L 136.484375 112.09375 L 119.707031 127.144531 L 91.683594 96.007812 L 85.28125 131.46875 L 63.140625 127.488281 L 72.828125 74.902344 L 73.863281 69.539062 C 74.730469 64.351562 79.226562 60.542969 84.417969 60.371094 L 89.261719 60.199219 L 89.433594 60.027344 L 89.605469 60.199219 L 144.617188 57.949219 L 145.480469 80.4375 Z M 109.152344 81.648438 "/></g></svg>