<svg xmlns="http://www.w3.org/2000/svg" xmlns:xlink="http://www.w3.org/1999/xlink" width="500" zoomAndPan="magnify" viewBox="0 0 375 119.999999" height="160" preserveAspectRatio="xMidYMid meet" version="1.2"><defs/><g id="d6073d8ac5"><g style="fill:#000000;fill-opacity:1;"><g transform="translate(207.057441, 89.181116)"><path style="stroke:none" d="M 14.703125 -38.125 L 28.609375 -38.125 L 28.609375 -28.328125 L 14.703125 -28.328125 L 14.703125 0 L 3.921875 0 L 3.921875 -68.59375 L 32.4375 -68.59375 L 32.4375 -58.796875 L 14.703125 -58.796875 Z M 14.703125 -38.125 "/></g></g><g style="fill:#000000;fill-opacity:1;"><g transform="translate(240.766756, 89.181116)"><path style="stroke:none" d="M 3.921875 -68.59375 L 14.703125 -68.59375 L 14.703125 -9.796875 L 32.4375 -9.796875 L 32.4375 0 L 3.921875 0 Z M 3.921875 -68.59375 "/></g></g><g style="fill:#000000;fill-opacity:1;"><g transform="translate(273.986103, 89.181116)"><path style="stroke:none" d="M 13.8125 -15.78125 C 13.8125 -13.289062 14.316406 -11.539062 15.328125 -10.53125 C 16.347656 -9.519531 17.707031 -9.015625 19.40625 -9.015625 C 21.101562 -9.015625 22.457031 -9.519531 23.46875 -10.53125 C 24.476562 -11.539062 24.984375 -13.289062 24.984375 -15.78125 L 24.984375 -52.828125 C 24.984375 -55.304688 24.476562 -57.050781 23.46875 -58.0625 C 22.457031 -59.070312 21.101562 -59.578125 19.40625 -59.578125 C 17.707031 -59.578125 16.347656 -59.070312 15.328125 -58.0625 C 14.316406 -57.050781 13.8125 -55.304688 13.8125 -52.828125 Z M 3.03125 -52.140625 C 3.03125 -57.691406 4.4375 -61.953125 7.25 -64.921875 C 10.0625 -67.898438 14.113281 -69.390625 19.40625 -69.390625 C 24.695312 -69.390625 28.742188 -67.898438 31.546875 -64.921875 C 34.359375 -61.953125 35.765625 -57.691406 35.765625 -52.140625 L 35.765625 -16.46875 C 35.765625 -10.914062 34.359375 -6.648438 31.546875 -3.671875 C 28.742188 -0.703125 24.695312 0.78125 19.40625 0.78125 C 14.113281 0.78125 10.0625 -0.703125 7.25 -3.671875 C 4.4375 -6.648438 3.03125 -10.914062 3.03125 -16.46875 Z M 3.03125 -52.140625 "/></g></g><g style="fill:#000000;fill-opacity:1;"><g transform="translate(312.791002, 89.181116)"><path style="stroke:none" d="M 27.828125 -36.546875 L 23.90625 0 L 9.109375 0 L 1.46875 -68.59375 L 11.953125 -68.59375 L 17.734375 -14.5 L 22.9375 -68.59375 L 33.3125 -68.59375 L 38.703125 -14.109375 L 44.296875 -68.59375 L 53.703125 -68.59375 L 46.0625 0 L 31.75 0 Z M 27.828125 -36.546875 "/></g></g><g style="fill:#000000;fill-opacity:1;"><g transform="translate(10.100352, 89.181111)"><path style="stroke:none" d="M 2.546875 -52.140625 C 2.546875 -57.691406 3.867188 -61.953125 6.515625 -64.921875 C 9.160156 -67.898438 13.128906 -69.390625 18.421875 -69.390625 C 23.710938 -69.390625 27.679688 -67.898438 30.328125 -64.921875 C 32.972656 -61.953125 34.296875 -57.691406 34.296875 -52.140625 L 34.296875 -49.984375 L 24.109375 -49.984375 L 24.109375 -52.828125 C 24.109375 -55.304688 23.632812 -57.050781 22.6875 -58.0625 C 21.738281 -59.070312 20.414062 -59.578125 18.71875 -59.578125 C 17.019531 -59.578125 15.695312 -59.070312 14.75 -58.0625 C 13.800781 -57.050781 13.328125 -55.304688 13.328125 -52.828125 C 13.328125 -50.472656 13.847656 -48.394531 14.890625 -46.59375 C 15.941406 -44.800781 17.25 -43.101562 18.8125 -41.5 C 20.382812 -39.90625 22.066406 -38.304688 23.859375 -36.703125 C 25.660156 -35.097656 27.34375 -33.347656 28.90625 -31.453125 C 30.476562 -29.554688 31.785156 -27.398438 32.828125 -24.984375 C 33.867188 -22.566406 34.390625 -19.726562 34.390625 -16.46875 C 34.390625 -10.914062 33.035156 -6.648438 30.328125 -3.671875 C 27.617188 -0.703125 23.617188 0.78125 18.328125 0.78125 C 13.035156 0.78125 9.03125 -0.703125 6.3125 -3.671875 C 3.601562 -6.648438 2.25 -10.914062 2.25 -16.46875 L 2.25 -20.671875 L 12.453125 -20.671875 L 12.453125 -15.78125 C 12.453125 -13.289062 12.957031 -11.554688 13.96875 -10.578125 C 14.976562 -9.597656 16.332031 -9.109375 18.03125 -9.109375 C 19.726562 -9.109375 21.082031 -9.597656 22.09375 -10.578125 C 23.113281 -11.554688 23.625 -13.289062 23.625 -15.78125 C 23.625 -18.132812 23.097656 -20.207031 22.046875 -22 C 21.003906 -23.800781 19.695312 -25.5 18.125 -27.09375 C 16.5625 -28.695312 14.878906 -30.296875 13.078125 -31.890625 C 11.285156 -33.492188 9.601562 -35.242188 8.03125 -37.140625 C 6.46875 -39.035156 5.160156 -41.191406 4.109375 -43.609375 C 3.066406 -46.023438 2.546875 -48.867188 2.546875 -52.140625 Z M 2.546875 -52.140625 "/></g></g><g style="fill:#000000;fill-opacity:1;"><g transform="translate(46.749422, 89.181111)"><path style="stroke:none" d="M 14.703125 0 L 3.921875 0 L 3.921875 -68.59375 L 14.703125 -68.59375 L 14.703125 -39.203125 L 26.953125 -39.203125 L 26.953125 -68.59375 L 37.921875 -68.59375 L 37.921875 0 L 26.953125 0 L 26.953125 -29.40625 L 14.703125 -29.40625 Z M 14.703125 0 "/></g></g><g style="fill:#000000;fill-opacity:1;"><g transform="translate(88.592084, 89.181111)"><path style="stroke:none" d="M 38.8125 0 L 27.9375 0 L 26.0625 -12.453125 L 12.84375 -12.453125 L 10.96875 0 L 1.078125 0 L 12.046875 -68.59375 L 27.828125 -68.59375 Z M 14.203125 -21.75 L 24.59375 -21.75 L 19.40625 -56.453125 Z M 14.203125 -21.75 "/></g></g><g style="fill:#000000;fill-opacity:1;"><g transform="translate(128.474899, 89.181111)"><path style="stroke:none" d="M 26.453125 0 C 26.328125 -0.457031 26.195312 -0.878906 26.0625 -1.265625 C 25.9375 -1.660156 25.820312 -2.148438 25.71875 -2.734375 C 25.625 -3.328125 25.5625 -4.082031 25.53125 -5 C 25.5 -5.914062 25.484375 -7.054688 25.484375 -8.421875 L 25.484375 -19.203125 C 25.484375 -22.410156 24.925781 -24.664062 23.8125 -25.96875 C 22.695312 -27.28125 20.898438 -27.9375 18.421875 -27.9375 L 14.703125 -27.9375 L 14.703125 0 L 3.921875 0 L 3.921875 -68.59375 L 20.1875 -68.59375 C 25.800781 -68.59375 29.863281 -67.285156 32.375 -64.671875 C 34.894531 -62.066406 36.15625 -58.117188 36.15625 -52.828125 L 36.15625 -47.4375 C 36.15625 -40.375 33.804688 -35.734375 29.109375 -33.515625 C 31.847656 -32.398438 33.722656 -30.582031 34.734375 -28.0625 C 35.753906 -25.550781 36.265625 -22.5 36.265625 -18.90625 L 36.265625 -8.328125 C 36.265625 -6.628906 36.328125 -5.140625 36.453125 -3.859375 C 36.585938 -2.585938 36.914062 -1.300781 37.4375 0 Z M 14.703125 -58.796875 L 14.703125 -37.734375 L 18.90625 -37.734375 C 20.9375 -37.734375 22.519531 -38.253906 23.65625 -39.296875 C 24.800781 -40.335938 25.375 -42.234375 25.375 -44.984375 L 25.375 -51.75 C 25.375 -54.226562 24.929688 -56.019531 24.046875 -57.125 C 23.171875 -58.238281 21.785156 -58.796875 19.890625 -58.796875 Z M 14.703125 -58.796875 "/></g></g><g style="fill:#000000;fill-opacity:1;"><g transform="translate(167.867748, 89.181111)"><path style="stroke:none" d="M 19.796875 -68.59375 C 25.222656 -68.59375 29.257812 -67.15625 31.90625 -64.28125 C 34.550781 -61.40625 35.875 -57.191406 35.875 -51.640625 L 35.875 -42.734375 C 35.875 -37.171875 34.550781 -32.953125 31.90625 -30.078125 C 29.257812 -27.210938 25.222656 -25.78125 19.796875 -25.78125 L 14.703125 -25.78125 L 14.703125 0 L 3.921875 0 L 3.921875 -68.59375 Z M 14.703125 -58.796875 L 14.703125 -35.578125 L 19.796875 -35.578125 C 21.492188 -35.578125 22.800781 -36.03125 23.71875 -36.9375 C 24.632812 -37.851562 25.09375 -39.554688 25.09375 -42.046875 L 25.09375 -52.328125 C 25.09375 -54.816406 24.632812 -56.515625 23.71875 -57.421875 C 22.800781 -58.335938 21.492188 -58.796875 19.796875 -58.796875 Z M 14.703125 -58.796875 "/></g></g><path style="fill:none;stroke-width:5;stroke-linecap:butt;stroke-linejoin:miter;stroke:#38b6ff;stroke-opacity:1;stroke-miterlimit:4;" d="M -0.00109611 2.501099 L 76.866242 2.501099 " transform="matrix(1.486073,0.000000000000000549,-0.000000000000000549,1.486073,11.079754,100.869121)"/></g></svg>